<svg width="7" height="10" viewBox="0 0 7 10" fill="none" xmlns="http://www.w3.org/2000/svg">
<path fill-rule="evenodd" clip-rule="evenodd" d="M5.96057 4.26431C6.15556 4.45954 6.26508 4.72418 6.26508 5.0001C6.26508 5.27602 6.15556 5.54066 5.96057 5.73589L2.03451 9.66333C1.83919 9.85857 1.5743 9.96821 1.29813 9.96815C1.02196 9.96808 0.757131 9.85831 0.561896 9.66299C0.366661 9.46766 0.257015 9.20278 0.25708 8.92661C0.257145 8.65044 0.366916 8.3856 0.562243 8.19037L3.75251 5.0001L0.562243 1.80983C0.372484 1.61355 0.26741 1.35058 0.269653 1.07758C0.271895 0.804575 0.381275 0.543373 0.574234 0.350232C0.767192 0.157092 1.02829 0.0474658 1.30129 0.0449656C1.57429 0.0424654 1.83736 0.147291 2.03382 0.336866L5.96127 4.26362L5.96057 4.26431Z" fill="#2962FF"/>
</svg>
