<svg width="12" height="12" viewBox="0 0 12 12" fill="none" xmlns="http://www.w3.org/2000/svg">
<path d="M6.7134 11.7116L11.7134 6.71165C11.8044 6.61655 11.8758 6.5044 11.9234 6.38165C12.0234 6.13819 12.0234 5.86511 11.9234 5.62165C11.8758 5.4989 11.8044 5.38675 11.7134 5.29165L6.7134 0.29165C6.62016 0.198412 6.50947 0.124451 6.38765 0.0739908C6.26583 0.0235305 6.13526 -0.00244141 6.0034 -0.00244141C5.7371 -0.00244141 5.4817 0.103347 5.2934 0.29165C5.1051 0.479954 4.99931 0.735349 4.99931 1.00165C4.99931 1.26795 5.1051 1.52335 5.2934 1.71165L8.5934 5.00165L1.0034 5.00165C0.738183 5.00165 0.483829 5.10701 0.296292 5.29454C0.108756 5.48208 0.00339985 5.73643 0.00339985 6.00165C0.00339985 6.26687 0.108756 6.52122 0.296292 6.70876C0.483829 6.89629 0.738183 7.00165 1.0034 7.00165L8.5934 7.00165L5.2934 10.2917C5.19967 10.3846 5.12528 10.4952 5.07451 10.6171C5.02374 10.7389 4.9976 10.8696 4.9976 11.0016C4.9976 11.1337 5.02374 11.2644 5.07451 11.3862C5.12528 11.5081 5.19967 11.6187 5.2934 11.7116C5.38636 11.8054 5.49696 11.8798 5.61882 11.9305C5.74068 11.9813 5.87139 12.0074 6.0034 12.0074C6.13541 12.0074 6.26612 11.9813 6.38798 11.9305C6.50984 11.8798 6.62044 11.8054 6.7134 11.7116Z" fill="white"/>
</svg>
