<svg width="26" height="37" viewBox="0 0 26 37" fill="none" xmlns="http://www.w3.org/2000/svg">
<path d="M10.2939 1.32384C10.2939 1.32384 12.4634 0.561214 15.6814 1.32384C18.8994 2.08646 21.7939 10.8131 21.7939 10.8131L17.5055 10.2985C17.5055 10.2985 13.1313 6.16019 8.19964 10.6415C8.19964 10.6415 5.39081 9.07612 5.41223 8.77596C5.43365 8.4758 6.8702 3.58699 7.53505 2.90099C8.19991 2.21498 10.2939 1.32384 10.2939 1.32384Z" fill="#1A44BA"/>
<path d="M25.8812 32.0615L19.1384 30.7914L16.5992 37.0091C16.5992 37.0091 15.1006 33.999 13.1591 30.7032C11.9414 28.6359 10.5491 26.4559 9.24325 24.8362C8.35677 23.7358 7.30167 22.5052 6.27377 21.1917C4.03478 18.3318 1.9191 15.0787 1.91992 11.9194C1.92102 7.26733 5.38921 2.37577 10.2923 1.32562C10.152 1.3789 2.9904 4.1847 11.7717 13.7176C11.8261 13.7767 11.8793 13.8349 11.9326 13.8931C15.3437 17.6085 18.1204 21.0272 20.272 23.8737C24.0278 28.8402 25.8812 32.0615 25.8812 32.0615Z" fill="#2962FF"/>
<path d="M20.2717 23.873C19.9877 24.0455 19.701 24.216 19.422 24.3962C17.5173 25.6245 15.9179 27.3209 14.8018 29.2924C14.606 29.6392 14.4201 30.0006 14.1391 30.2824C13.8815 30.543 13.5201 30.7309 13.1587 30.7028C11.9411 28.6355 10.5487 26.4556 9.24292 24.8358C8.35644 23.7354 7.30134 22.5049 6.27344 21.1913C7.03386 20.6866 7.74513 20.1093 8.39901 19.4728C9.7485 18.1551 10.85 16.5829 11.6222 14.8632C11.7483 14.5812 11.8403 14.2385 11.9323 13.8925C15.3436 17.6078 18.12 21.0268 20.2717 23.873Z" fill="#1D49C0"/>
<path d="M24.0561 11.9191C24.0572 16.5297 19.5501 21.3405 16.732 24.8362C14.1752 28.007 11.2873 33.3258 10.0249 35.7439C9.61404 36.5296 9.37567 37.009 9.37567 37.009L6.83652 30.7913L0.09375 32.0615C0.09375 32.0615 4.73238 23.998 14.2032 13.7173C22.9845 4.1844 15.8241 1.37887 15.6834 1.32532C16.9409 1.59472 18.1053 2.11678 19.1401 2.82502C22.1379 4.87123 24.055 8.46053 24.0561 11.9191Z" fill="#2962FF"/>
<path d="M9.46488 21.6223C9.30478 21.9644 9.1606 22.3223 9.13314 22.699C9.10568 23.0758 9.21058 23.4781 9.48575 23.7368C10.0075 24.227 10.8597 24.0172 11.4935 23.6847C13.4425 22.6625 14.8829 20.7201 15.2948 18.5583C15.3736 18.1453 15.4156 17.7125 15.2978 17.3088C14.7758 15.5204 12.7537 17.4873 12.0197 18.159C10.9547 19.1331 10.077 20.3142 9.46488 21.6223Z" fill="#EBF2FF"/>
<path d="M16.0732 15.6762C15.898 16.114 15.8318 16.6704 16.16 17.0087C16.4107 17.2674 16.8281 17.308 17.167 17.1856C17.5059 17.0634 17.7786 16.806 18.012 16.5311C18.3498 16.1335 18.6354 15.6609 18.6689 15.1402C18.7118 14.469 18.21 13.6309 17.488 13.9706C16.8504 14.2707 16.3256 15.0454 16.0732 15.6762Z" fill="#EBF2FF"/>
</svg>
