<svg width="58" height="58" viewBox="0 0 58 58" fill="none" xmlns="http://www.w3.org/2000/svg">
<g clip-path="url(#clip0_922_4969)">
<rect width="58" height="58" rx="29" fill="#EBF2FF"/>
<path d="M40.996 33.128L17.006 33.22L16.452 26.57C16.2733 25.0537 16.6794 23.5262 17.5876 22.2989C18.4958 21.0715 19.8377 20.2365 21.34 19.964L22.918 19.678C26.9423 18.9459 31.0657 18.9459 35.09 19.678L36.662 19.964C38.1636 20.237 39.5048 21.0718 40.4125 22.2987C41.3202 23.5256 41.7263 25.0523 41.548 26.568L40.996 33.128Z" fill="#BACDFF"/>
<path d="M39.3959 43.77L30.4159 52.75C30.2302 52.936 30.0096 53.0835 29.7668 53.1841C29.524 53.2848 29.2638 53.3366 29.0009 53.3366C28.7381 53.3366 28.4778 53.2848 28.2351 53.1841C27.9923 53.0835 27.7717 52.936 27.5859 52.75L18.6039 43.77C15.9876 45.3554 13.772 47.5226 12.1292 50.1032C10.4865 52.6839 9.46082 55.6086 9.13194 58.65C9.10161 58.9292 9.13042 59.2117 9.21649 59.479C9.30257 59.7463 9.44398 59.9925 9.63152 60.2016C9.81905 60.4106 10.0485 60.5778 10.305 60.6923C10.5614 60.8068 10.8391 60.866 11.1199 60.866H46.8799C47.1608 60.866 47.4385 60.8068 47.6949 60.6923C47.9514 60.5778 48.1808 60.4106 48.3684 60.2016C48.5559 59.9925 48.6973 59.7463 48.7834 59.479C48.8695 59.2117 48.8983 58.9292 48.8679 58.65C48.5391 55.6086 47.5134 52.6839 45.8706 50.1032C44.2279 47.5226 42.0123 45.3554 39.3959 43.77Z" fill="#2962FF"/>
<path d="M36.38 42.3081C34.2699 43.9498 31.6726 44.8412 28.999 44.8412C26.3254 44.8412 23.7282 43.9498 21.618 42.3081C20.5743 42.7097 19.5661 43.198 18.604 43.7681L27.586 52.7521C27.9611 53.127 28.4697 53.3377 29 53.3377C29.5303 53.3377 30.0389 53.127 30.414 52.7521L39.396 43.7701C38.434 43.1993 37.4258 42.7103 36.382 42.3081H36.38Z" fill="#1D49C0"/>
<path opacity="0.25" d="M17.0181 33.2179C17.1097 36.3429 18.4185 39.3085 20.6654 41.4824C22.9124 43.6562 25.9196 44.8662 29.0459 44.8545C32.1723 44.8427 35.1703 43.6101 37.4009 41.4195C39.6314 39.2289 40.9179 36.2535 40.9861 33.1279L17.0181 33.2179Z" fill="#2962FF"/>
<path d="M32.4808 39.2714C32.3283 39.6222 32.1924 39.9884 32.1751 40.3705C32.1578 40.7527 32.2752 41.1569 32.5609 41.4111C33.1027 41.8927 33.9594 41.6566 34.5916 41.3023C36.5358 40.2134 37.9394 38.2072 38.2961 36.0076C38.3643 35.5874 38.3948 35.1482 38.2642 34.7428C37.686 32.9474 35.6943 34.9945 34.97 35.6949C33.9193 36.7105 33.0639 37.9304 32.4808 39.2714Z" fill="#EBF2FF"/>
<path d="M35.197 31.878C35.0319 32.326 34.9804 32.891 35.322 33.2243C35.583 33.4791 36.0066 33.5086 36.3462 33.3752C36.6858 33.242 36.9546 32.974 37.1832 32.6892C37.514 32.2773 37.7899 31.791 37.8093 31.2631C37.8339 30.5825 37.3027 29.7482 36.5814 30.1122C35.9444 30.4338 35.4348 31.2325 35.197 31.878Z" fill="#EBF2FF"/>
</g>
<defs>
<clipPath id="clip0_922_4969">
<rect width="58" height="58" rx="29" fill="white"/>
</clipPath>
</defs>
</svg>
