<svg width="19" height="16" viewBox="0 0 19 16" fill="none" xmlns="http://www.w3.org/2000/svg">
<path d="M10 5.99994V14.9999M10 5.99994L13 8.99994M10 5.99994L7.00002 8.99994M15.5 10.9999C17.019 10.9999 18 9.76894 18 8.24994C18 7.64856 17.8028 7.06377 17.4387 6.58515C17.0746 6.10653 16.5636 5.76046 15.984 5.59994C15.8948 4.4784 15.43 3.41971 14.6647 2.59503C13.8994 1.77036 12.8783 1.2279 11.7665 1.05537C10.6547 0.882831 9.51727 1.0903 8.53801 1.64423C7.55874 2.19816 6.79491 3.06618 6.37002 4.10794C5.47544 3.85996 4.519 3.97751 3.71109 4.43473C2.90318 4.89194 2.30999 5.65137 2.06202 6.54594C1.81404 7.44052 1.93159 8.39696 2.3888 9.20487C2.84601 10.0128 3.60544 10.606 4.50002 10.8539" stroke="#425A70" stroke-width="2" stroke-linecap="round" stroke-linejoin="round"/>
</svg>
