<svg width="48" height="41" viewBox="0 0 48 41" fill="none" xmlns="http://www.w3.org/2000/svg">
<path d="M35.996 16.128L12.006 16.22L11.452 9.57004C11.2733 8.05369 11.6794 6.52625 12.5876 5.29887C13.4958 4.07149 14.8377 3.23652 16.34 2.96404L17.918 2.67804C21.9423 1.94586 26.0657 1.94586 30.09 2.67804L31.662 2.96404C33.1636 3.23695 34.5048 4.07183 35.4125 5.29872C36.3202 6.52561 36.7263 8.0523 36.548 9.56804L35.996 16.128Z" fill="#BACDFF"/>
<path d="M34.3959 26.77L25.4159 35.75C25.2302 35.936 25.0096 36.0835 24.7668 36.1841C24.524 36.2848 24.2638 36.3366 24.0009 36.3366C23.7381 36.3366 23.4778 36.2848 23.2351 36.1841C22.9923 36.0835 22.7717 35.936 22.5859 35.75L13.6039 26.77C10.9876 28.3554 8.77198 30.5226 7.12923 33.1032C5.48648 35.6839 4.46082 38.6086 4.13194 41.65C4.10161 41.9292 4.13042 42.2117 4.21649 42.479C4.30257 42.7463 4.44398 42.9925 4.63152 43.2016C4.81905 43.4106 5.04852 43.5778 5.30497 43.6923C5.56141 43.8068 5.8391 43.866 6.11994 43.866H41.8799C42.1608 43.866 42.4385 43.8068 42.6949 43.6923C42.9514 43.5778 43.1808 43.4106 43.3684 43.2016C43.5559 42.9925 43.6973 42.7463 43.7834 42.479C43.8695 42.2117 43.8983 41.9292 43.8679 41.65C43.5391 38.6086 42.5134 35.6839 40.8706 33.1032C39.2279 30.5226 37.0123 28.3554 34.3959 26.77Z" fill="#2962FF"/>
<path d="M31.38 25.3081C29.2699 26.9498 26.6726 27.8412 23.999 27.8412C21.3254 27.8412 18.7282 26.9498 16.618 25.3081C15.5743 25.7097 14.5661 26.198 13.604 26.7681L22.586 35.7521C22.9611 36.127 23.4697 36.3377 24 36.3377C24.5303 36.3377 25.0389 36.127 25.414 35.7521L34.396 26.7701C33.434 26.1993 32.4258 25.7103 31.382 25.3081H31.38Z" fill="#1D49C0"/>
<path opacity="0.25" d="M12.0181 16.2179C12.1097 19.3429 13.4185 22.3085 15.6654 24.4824C17.9124 26.6562 20.9196 27.8662 24.0459 27.8545C27.1723 27.8427 30.1703 26.6101 32.4009 24.4195C34.6314 22.2289 35.9179 19.2535 35.9861 16.1279L12.0181 16.2179Z" fill="#2962FF"/>
<path d="M27.4808 22.2714C27.3283 22.6222 27.1924 22.9884 27.1751 23.3705C27.1578 23.7527 27.2752 24.1569 27.5609 24.4111C28.1027 24.8927 28.9594 24.6566 29.5916 24.3023C31.5358 23.2134 32.9394 21.2072 33.2961 19.0076C33.3643 18.5874 33.3948 18.1482 33.2642 17.7428C32.686 15.9474 30.6943 17.9945 29.97 18.6949C28.9193 19.7105 28.0639 20.9304 27.4808 22.2714Z" fill="#EBF2FF"/>
<path d="M30.197 14.878C30.0319 15.326 29.9804 15.891 30.322 16.2243C30.583 16.4791 31.0066 16.5086 31.3462 16.3752C31.6858 16.242 31.9546 15.974 32.1832 15.6892C32.514 15.2773 32.7899 14.791 32.8093 14.2631C32.8339 13.5825 32.3027 12.7482 31.5814 13.1122C30.9444 13.4338 30.4348 14.2325 30.197 14.878Z" fill="#EBF2FF"/>
</svg>
