<svg width="28" height="28" viewBox="0 0 28 28" fill="none" xmlns="http://www.w3.org/2000/svg">
<path d="M23.3333 3.39391H21.6353V1.27276C21.6353 0.569644 21.0653 0 20.3625 0C19.6597 0 19.0898 0.569644 19.0898 1.27276V3.39391H8.91022V1.27276C8.91022 0.569644 8.34027 0 7.63747 0C6.93436 0 6.36471 0.569644 6.36471 1.27276V3.39391H4.66667C2.0888 3.39422 0.000622222 5.4824 0 8.06058V10.6014V23.3333C0.000933333 25.9112 2.0888 27.9991 4.66667 28H19.091L19.1707 27.9841L19.4945 27.9204L19.6202 27.8756L19.9908 27.6273L27.627 19.9908L27.8768 19.6159L27.9176 19.5011L27.9838 19.17L28 19.0913V10.6017V8.06089C27.9991 5.4824 25.9109 3.39453 23.3333 3.39391ZM4.66667 5.93911H6.36471V6.36378C6.36471 7.06658 6.93436 7.63653 7.63747 7.63653C8.34027 7.63653 8.91022 7.06658 8.91022 6.36378V5.93911H19.0898V6.36378C19.0898 7.06658 19.6597 7.63653 20.3625 7.63653C21.0653 7.63653 21.6353 7.06658 21.6353 6.36378V5.93911H23.3333C24.5044 5.9416 25.4523 6.88924 25.4545 8.06089V9.32898H2.54551V8.06089C2.54769 6.88893 3.49564 5.9416 4.66667 5.93911ZM2.54551 23.3336V11.8739H25.4548V17.8183H21.6365C19.5272 17.8192 17.8192 19.5272 17.8183 21.6365V25.4548H4.66667C3.49564 25.4523 2.54769 24.5044 2.54551 23.3336ZM20.3638 23.6544V21.6368C20.365 20.934 20.934 20.3653 21.6365 20.3638H23.6544L22.124 21.8941L20.3638 23.6544Z" fill="#751423" fill-opacity="0.7"/>
</svg>
