<svg width="120" height="120" viewBox="0 0 120 120" fill="none" xmlns="http://www.w3.org/2000/svg">
<rect width="120" height="120" rx="60" fill="#0CAF60" fill-opacity="0.1"/>
<path fill-rule="evenodd" clip-rule="evenodd" d="M60.0002 96.6667C80.2506 96.6667 96.6668 80.2505 96.6668 60C96.6668 39.7496 80.2506 23.3333 60.0002 23.3333C39.7497 23.3333 23.3335 39.7496 23.3335 60C23.3335 80.2505 39.7497 96.6667 60.0002 96.6667ZM76.8376 50.6885C77.77 49.4896 77.5541 47.7619 76.3552 46.8294C75.1563 45.897 73.4286 46.1129 72.4961 47.3118L57.8038 66.202C57.4771 66.622 56.8625 66.6765 56.467 66.3205L47.1732 57.9561C46.0443 56.9401 44.3055 57.0316 43.2895 58.1605C42.2734 59.2894 42.365 61.0282 43.4939 62.0442L52.7877 70.4086C55.5565 72.9006 59.8583 72.519 62.1452 69.5786L76.8376 50.6885Z" fill="#0CAF60"/>
</svg>
