<svg width="11" height="12" viewBox="0 0 11 12" fill="none" xmlns="http://www.w3.org/2000/svg">
<path fill-rule="evenodd" clip-rule="evenodd" d="M4.05956 0.692667C5.14118 0.398983 6.28671 0.442754 7.34277 0.818118C8.39882 1.19348 9.315 1.88252 9.96862 2.79298V1.70329C9.96862 1.56654 10.0229 1.43539 10.1196 1.33869C10.2163 1.24199 10.3475 1.18767 10.4842 1.18767C10.621 1.18767 10.7522 1.24199 10.8488 1.33869C10.9455 1.43539 10.9999 1.56654 10.9999 1.70329V4.62517H8.078C7.94125 4.62517 7.81009 4.57084 7.7134 4.47414C7.6167 4.37745 7.56237 4.24629 7.56237 4.10954C7.56237 3.97279 7.6167 3.84164 7.7134 3.74494C7.81009 3.64824 7.94125 3.59392 8.078 3.59392H9.26531C8.72677 2.75138 7.92121 2.11381 6.97749 1.7832C6.03378 1.4526 5.00644 1.44806 4.05985 1.77032C3.11325 2.09258 2.30209 2.72301 1.75613 3.56076C1.21017 4.39852 0.960965 5.39517 1.04838 6.39129C1.13579 7.38741 1.55478 8.32544 2.2383 9.05529C2.92182 9.78515 3.83039 10.2647 4.81864 10.4171C5.8069 10.5696 6.81774 10.3862 7.68945 9.8963C8.56116 9.40638 9.24337 8.63825 9.62694 7.71479C9.65183 7.65077 9.68927 7.59237 9.73706 7.54302C9.78484 7.49366 9.842 7.45436 9.90519 7.4274C9.96837 7.40045 10.0363 7.3864 10.105 7.38606C10.1737 7.38573 10.2418 7.39913 10.3052 7.42547C10.3686 7.45181 10.4262 7.49056 10.4744 7.53944C10.5227 7.58833 10.5607 7.64637 10.5862 7.71015C10.6117 7.77393 10.6243 7.84216 10.623 7.91084C10.6218 7.97953 10.6069 8.04727 10.5791 8.1101C10.2208 8.9726 9.64875 9.72964 8.91689 10.3099C8.18502 10.8901 7.31746 11.2744 6.39597 11.4265C5.47449 11.5787 4.52943 11.4937 3.6499 11.1795C2.77036 10.8653 1.98531 10.3324 1.36876 9.63083C0.752206 8.92929 0.324453 8.08231 0.125823 7.16971C-0.0728069 6.25712 -0.0357704 5.30897 0.233441 4.41465C0.502653 3.52033 0.995171 2.70929 1.66457 2.05799C2.33397 1.40669 3.1582 0.93727 4.05956 0.692667Z" fill="#2962FF"/>
</svg>
