<svg width="22" height="22" viewBox="0 0 22 22" fill="none" xmlns="http://www.w3.org/2000/svg">
<path d="M11 5.0957H20.1667" stroke="#718096" stroke-width="1.5" stroke-miterlimit="10" stroke-linecap="round" stroke-linejoin="round"/>
<path d="M13.035 1.83398H18.1317C19.7633 1.83398 20.1667 2.23732 20.1667 3.85065V7.61815C20.1667 9.23149 19.7633 9.63482 18.1317 9.63482H13.035C11.4033 9.63482 11 9.23149 11 7.61815V3.85065C11 2.23732 11.4033 1.83398 13.035 1.83398Z" stroke="#718096" stroke-width="1.5" stroke-linecap="round" stroke-linejoin="round"/>
<path d="M1.8335 15.6387H11.0002" stroke="#718096" stroke-width="1.5" stroke-miterlimit="10" stroke-linecap="round" stroke-linejoin="round"/>
<path d="M3.8685 12.375H8.96516C10.5968 12.375 11.0002 12.7783 11.0002 14.3917V18.1592C11.0002 19.7725 10.5968 20.1758 8.96516 20.1758H3.8685C2.23683 20.1758 1.8335 19.7725 1.8335 18.1592V14.3917C1.8335 12.7783 2.23683 12.375 3.8685 12.375Z" stroke="#718096" stroke-width="1.5" stroke-linecap="round" stroke-linejoin="round"/>
<path d="M20.1667 13.75C20.1667 17.2975 17.2975 20.1667 13.75 20.1667L14.7125 18.5625" stroke="#718096" stroke-width="1.5" stroke-linecap="round" stroke-linejoin="round"/>
<path d="M1.8335 8.25065C1.8335 4.70315 4.70266 1.83398 8.25016 1.83398L7.28767 3.43815" stroke="#718096" stroke-width="1.5" stroke-linecap="round" stroke-linejoin="round"/>
</svg>
